<svg width="512" height="512" viewBox="0 0 512 512" fill="none" xmlns="http://www.w3.org/2000/svg">
  <rect width="512" height="512" rx="96" fill="#1289E8"/>
  <circle cx="366" cy="154" r="84" fill="white" fill-opacity="0.12"/>
  <circle cx="388" cy="154" r="52" fill="none" stroke="white" stroke-opacity="0.22" stroke-width="10"/>
  <path d="M104 300C104 237.04 152.04 188 215 188C261.55 188 301.59 214.95 319.79 254.04L271.88 276.65C263.09 257.75 240.78 244 215 244C182.97 244 160 266.97 160 299C160 331.03 182.97 354 215 354C237.61 354 256.77 342.58 266.58 324H214V277H322V300C322 360.2 275.2 407 215 407C152.04 407 104 357.96 104 300Z" fill="white"/>
  <text x="326" y="373" fill="white" font-family="Arial, sans-serif" font-size="92" font-weight="700">2</text>
</svg>
